<svg xmlns="http://www.w3.org/2000/svg" viewBox="0 0 26.47 28.42"><defs><style>.cls-1{fill:#7895a4;}.cls-1,.cls-10,.cls-2,.cls-3,.cls-4,.cls-5,.cls-6,.cls-7,.cls-8,.cls-9{stroke:#fff;stroke-miterlimit:10;stroke-width:0.5px;}.cls-2{fill:#5f6252;}.cls-3{fill:#c26558;}.cls-4{fill:#7e706d;}.cls-5{fill:#71535c;}.cls-6{fill:#a06262;}.cls-7{fill:#689676;}.cls-8{fill:#cdaf70;}.cls-9{fill:#abadb0;}.cls-10{fill:#53697a;}</style></defs><title>Asset 2</title><g id="Layer_2" data-name="Layer 2"><g id="Layer_1-2" data-name="Layer 1"><polygon class="cls-1" points="22.51 25.99 18.8 28.13 15.09 25.99 15.09 21.71 18.8 19.57 22.51 21.71 22.51 25.99"/><polygon class="cls-2" points="15.09 25.99 11.38 28.13 7.67 25.99 7.67 21.71 11.38 19.57 15.09 21.71 15.09 25.99"/><polygon class="cls-3" points="18.8 19.57 15.09 21.71 11.38 19.57 11.38 15.28 15.09 13.14 18.8 15.28 18.8 19.57"/><polygon class="cls-4" points="11.38 19.57 7.67 21.71 3.96 19.57 3.96 15.28 7.67 13.14 11.38 15.28 11.38 19.57"/><polygon class="cls-5" points="26.22 19.57 22.51 21.71 18.8 19.57 18.8 15.28 22.51 13.14 26.22 15.28 26.22 19.57"/><polygon class="cls-6" points="3.96 2.43 7.67 0.29 11.38 2.43 11.38 6.71 7.67 8.86 3.96 6.71 3.96 2.43"/><polygon class="cls-7" points="11.38 2.43 15.09 0.29 18.8 2.43 18.8 6.71 15.09 8.86 11.38 6.71 11.38 2.43"/><polygon class="cls-8" points="7.67 8.86 11.38 6.71 15.09 8.86 15.09 13.14 11.38 15.28 7.67 13.14 7.67 8.86"/><polygon class="cls-9" points="15.09 8.86 18.8 6.71 22.51 8.86 22.51 13.14 18.8 15.28 15.09 13.14 15.09 8.86"/><polygon class="cls-10" points="0.25 8.86 3.96 6.71 7.67 8.86 7.67 13.14 3.96 15.28 0.25 13.14 0.25 8.86"/></g></g></svg>